G75*
%MOIN*%
%OFA0B0*%
%FSLAX24Y24*%
%IPPOS*%
%LPD*%
%AMOC8*
5,1,8,0,0,1.08239X$1,22.5*
%
%ADD10C,0.0060*%
%ADD11C,0.0000*%
%ADD12C,0.0030*%
%ADD13C,0.0080*%
D10*
X005095Y008491D02*
X006005Y008491D01*
X006005Y012431D02*
X005665Y012431D01*
X005425Y012431D01*
X005095Y012431D01*
X005095Y013531D02*
X006005Y013531D01*
X006005Y017471D02*
X005665Y017471D01*
X005425Y017471D01*
X005095Y017471D01*
X021042Y017001D02*
X021042Y016661D01*
X021042Y016421D01*
X021042Y016091D01*
X024982Y016091D02*
X024982Y017001D01*
X024982Y010977D02*
X024982Y010067D01*
X021042Y010067D02*
X021042Y010397D01*
X021042Y010637D01*
X021042Y010977D01*
D11*
X021042Y010637D02*
X021063Y010635D01*
X021083Y010630D01*
X021102Y010621D01*
X021119Y010609D01*
X021134Y010594D01*
X021146Y010577D01*
X021155Y010558D01*
X021160Y010538D01*
X021162Y010517D01*
X021160Y010496D01*
X021155Y010476D01*
X021146Y010457D01*
X021134Y010440D01*
X021119Y010425D01*
X021102Y010413D01*
X021083Y010404D01*
X021063Y010399D01*
X021042Y010397D01*
X021042Y016421D02*
X021063Y016423D01*
X021083Y016428D01*
X021102Y016437D01*
X021119Y016449D01*
X021134Y016464D01*
X021146Y016481D01*
X021155Y016500D01*
X021160Y016520D01*
X021162Y016541D01*
X021160Y016562D01*
X021155Y016582D01*
X021146Y016601D01*
X021134Y016618D01*
X021119Y016633D01*
X021102Y016645D01*
X021083Y016654D01*
X021063Y016659D01*
X021042Y016661D01*
X005665Y017471D02*
X005663Y017450D01*
X005658Y017430D01*
X005649Y017411D01*
X005637Y017394D01*
X005622Y017379D01*
X005605Y017367D01*
X005586Y017358D01*
X005566Y017353D01*
X005545Y017351D01*
X005524Y017353D01*
X005504Y017358D01*
X005485Y017367D01*
X005468Y017379D01*
X005453Y017394D01*
X005441Y017411D01*
X005432Y017430D01*
X005427Y017450D01*
X005425Y017471D01*
X005425Y012431D02*
X005427Y012410D01*
X005432Y012390D01*
X005441Y012371D01*
X005453Y012354D01*
X005468Y012339D01*
X005485Y012327D01*
X005504Y012318D01*
X005524Y012313D01*
X005545Y012311D01*
X005566Y012313D01*
X005586Y012318D01*
X005605Y012327D01*
X005622Y012339D01*
X005637Y012354D01*
X005649Y012371D01*
X005658Y012390D01*
X005663Y012410D01*
X005665Y012431D01*
D12*
X006396Y012475D02*
X006710Y012788D01*
X006710Y012631D02*
X006396Y012631D01*
X006396Y012788D02*
X006710Y012475D01*
X006553Y012475D02*
X006553Y012788D01*
X006553Y017514D02*
X006553Y017828D01*
X006396Y017828D02*
X006710Y017514D01*
X006710Y017671D02*
X006396Y017671D01*
X006396Y017514D02*
X006710Y017828D01*
X020685Y017706D02*
X020999Y017392D01*
X020842Y017392D02*
X020842Y017706D01*
X020999Y017706D02*
X020685Y017392D01*
X020685Y017549D02*
X020999Y017549D01*
X020999Y011682D02*
X020685Y011369D01*
X020685Y011526D02*
X020999Y011526D01*
X020999Y011369D02*
X020685Y011682D01*
X020842Y011682D02*
X020842Y011369D01*
D13*
X020612Y011479D02*
X020489Y011602D01*
X020612Y011479D02*
X020612Y011232D01*
X020489Y011109D01*
X020242Y011109D01*
X020119Y011232D01*
X020119Y011355D01*
X020242Y011602D01*
X019872Y011602D01*
X019872Y011109D01*
X019872Y011864D02*
X020489Y011864D01*
X020612Y011987D01*
X020612Y012234D01*
X020489Y012357D01*
X019872Y012357D01*
X020242Y017132D02*
X020242Y017626D01*
X019872Y017256D01*
X020612Y017256D01*
X020489Y017887D02*
X019872Y017887D01*
X019872Y018381D02*
X020489Y018381D01*
X020612Y018258D01*
X020612Y018011D01*
X020489Y017887D01*
X007385Y018024D02*
X007261Y017901D01*
X007015Y017901D01*
X006891Y018024D01*
X006891Y018641D01*
X006630Y018518D02*
X006506Y018641D01*
X006260Y018641D01*
X006136Y018518D01*
X006136Y018394D01*
X006630Y017901D01*
X006136Y017901D01*
X007385Y018024D02*
X007385Y018641D01*
X007385Y013602D02*
X007385Y012985D01*
X007261Y012861D01*
X007015Y012861D01*
X006891Y012985D01*
X006891Y013602D01*
X006630Y013478D02*
X006506Y013602D01*
X006260Y013602D01*
X006136Y013478D01*
X006136Y013355D01*
X006260Y013232D01*
X006136Y013108D01*
X006136Y012985D01*
X006260Y012861D01*
X006506Y012861D01*
X006630Y012985D01*
X006383Y013232D02*
X006260Y013232D01*
M02*
