G75*
%MOIN*%
%OFA0B0*%
%FSLAX24Y24*%
%IPPOS*%
%LPD*%
%AMOC8*
5,1,8,0,0,1.08239X$1,22.5*
%
%ADD10C,0.1419*%
%ADD11C,0.1852*%
%ADD12R,0.0553X0.0514*%
%ADD13OC8,0.0720*%
%ADD14OC8,0.0970*%
%ADD15R,0.0829X0.0419*%
%ADD16R,0.0419X0.0829*%
%ADD17R,0.0396X0.0297*%
%ADD18C,0.0660*%
%ADD19C,0.0330*%
D10*
X002032Y001388D03*
X026534Y001388D03*
D11*
X015510Y020562D03*
X015510Y033160D03*
X002912Y033160D03*
D12*
X019780Y018562D03*
X020450Y018562D03*
X010029Y007605D03*
X009360Y007605D03*
D13*
X002413Y009246D03*
X002413Y010246D03*
X002413Y011246D03*
X002413Y012246D03*
X002413Y013246D03*
X002413Y014246D03*
X002413Y015246D03*
X002413Y016246D03*
X002413Y017246D03*
X002413Y018246D03*
X002413Y019246D03*
X002413Y020246D03*
X002413Y021246D03*
X002413Y022246D03*
X002413Y023246D03*
X002413Y024246D03*
X002413Y025246D03*
X002413Y026246D03*
X002413Y027246D03*
X002413Y028246D03*
X001413Y028246D03*
X001413Y027246D03*
X001413Y026246D03*
X001413Y025246D03*
X001413Y024246D03*
X001413Y023246D03*
X001413Y022246D03*
X001413Y021246D03*
X001413Y020246D03*
X001413Y019246D03*
X001413Y018246D03*
X001413Y017246D03*
X001413Y016246D03*
X001413Y015246D03*
X001413Y014246D03*
X001413Y013246D03*
X001413Y012246D03*
X001413Y011246D03*
X001413Y010246D03*
X001413Y009246D03*
X026202Y009236D03*
X026202Y010236D03*
X026202Y011236D03*
X026202Y012236D03*
X026202Y013236D03*
X026202Y014236D03*
X026202Y015236D03*
X026202Y016236D03*
X026202Y017236D03*
X026202Y018236D03*
X026202Y019236D03*
X026202Y020236D03*
X026202Y021236D03*
X026202Y022236D03*
X026202Y023236D03*
X026202Y024236D03*
X026202Y025236D03*
X026202Y026236D03*
X026202Y027236D03*
X026202Y028236D03*
X027202Y028236D03*
X027202Y027236D03*
X027202Y026236D03*
X027202Y025236D03*
X027202Y024236D03*
X027202Y023236D03*
X027202Y022236D03*
X027202Y021236D03*
X027202Y020236D03*
X027202Y019236D03*
X027202Y018236D03*
X027202Y017236D03*
X027202Y016236D03*
X027202Y015236D03*
X027202Y014236D03*
X027202Y013236D03*
X027202Y012236D03*
X027202Y011236D03*
X027202Y010236D03*
X027202Y009236D03*
D14*
X021948Y025343D03*
X018543Y025349D03*
D15*
X019317Y017081D03*
X019317Y016581D03*
X019317Y016081D03*
X019317Y015581D03*
X019317Y015081D03*
X019317Y014581D03*
X019317Y014081D03*
X019317Y013581D03*
X019317Y013081D03*
X019317Y012581D03*
X019317Y012081D03*
X019317Y011581D03*
X019317Y011081D03*
X019317Y010581D03*
X019317Y010081D03*
X019317Y009581D03*
X019317Y009081D03*
X010129Y009081D03*
X010129Y009581D03*
X010129Y010081D03*
X010129Y010581D03*
X010129Y011081D03*
X010129Y011581D03*
X010129Y012081D03*
X010129Y012581D03*
X010129Y013081D03*
X010129Y013581D03*
X010129Y014081D03*
X010129Y014581D03*
X010129Y015081D03*
X010129Y015581D03*
X010129Y016081D03*
X010129Y016581D03*
X010129Y017081D03*
D16*
X010723Y017676D03*
X011223Y017676D03*
X011723Y017676D03*
X012223Y017676D03*
X012723Y017676D03*
X013223Y017676D03*
X013723Y017676D03*
X014223Y017676D03*
X014723Y017676D03*
X015223Y017676D03*
X015723Y017676D03*
X016223Y017676D03*
X016723Y017676D03*
X017223Y017676D03*
X017723Y017676D03*
X018223Y017676D03*
X018723Y017676D03*
X018723Y008487D03*
X018223Y008487D03*
X017723Y008487D03*
X017223Y008487D03*
X016723Y008487D03*
X016223Y008487D03*
X015723Y008487D03*
X015223Y008487D03*
X014723Y008487D03*
X014223Y008487D03*
X013723Y008487D03*
X013223Y008487D03*
X012723Y008487D03*
X012223Y008487D03*
X011723Y008487D03*
X011223Y008487D03*
X010723Y008487D03*
D17*
X009949Y006900D03*
X009949Y006585D03*
X009949Y006270D03*
X009949Y005955D03*
X009339Y005955D03*
X009339Y006270D03*
X009339Y006585D03*
X009339Y006900D03*
X009339Y005325D03*
X009339Y005010D03*
X009339Y004695D03*
X009339Y004380D03*
X009949Y004380D03*
X009949Y004695D03*
X009949Y005010D03*
X009949Y005325D03*
X008532Y009341D03*
X008532Y009656D03*
X008532Y009971D03*
X008532Y010286D03*
X007922Y010286D03*
X007922Y009971D03*
X007922Y009656D03*
X007922Y009341D03*
X007922Y011388D03*
X007922Y011703D03*
X007922Y012018D03*
X007922Y012333D03*
X008532Y012333D03*
X008532Y012018D03*
X008532Y011703D03*
X008532Y011388D03*
X008532Y013829D03*
X008532Y014144D03*
X008532Y014459D03*
X008532Y014774D03*
X007922Y014774D03*
X007922Y014459D03*
X007922Y014144D03*
X007922Y013829D03*
X007922Y015877D03*
X007922Y016192D03*
X007922Y016506D03*
X007922Y016821D03*
X008532Y016821D03*
X008532Y016506D03*
X008532Y016192D03*
X008532Y015877D03*
X019339Y006821D03*
X019339Y006506D03*
X019339Y006192D03*
X019339Y005877D03*
X019339Y005325D03*
X019339Y005010D03*
X019339Y004695D03*
X019339Y004380D03*
X019949Y004380D03*
X019949Y004695D03*
X019949Y005010D03*
X019949Y005325D03*
X019949Y005877D03*
X019949Y006192D03*
X019949Y006506D03*
X019949Y006821D03*
X020756Y009341D03*
X020756Y009656D03*
X020756Y009971D03*
X020756Y010286D03*
X021367Y010286D03*
X021367Y009971D03*
X021367Y009656D03*
X021367Y009341D03*
X021367Y011388D03*
X021367Y011703D03*
X021367Y012018D03*
X021367Y012333D03*
X020756Y012333D03*
X020756Y012018D03*
X020756Y011703D03*
X020756Y011388D03*
X020756Y013908D03*
X020756Y014223D03*
X020756Y014538D03*
X020756Y014853D03*
X021367Y014853D03*
X021367Y014538D03*
X021367Y014223D03*
X021367Y013908D03*
X021367Y015877D03*
X021367Y016192D03*
X021367Y016506D03*
X021367Y016821D03*
X020756Y016821D03*
X020756Y016506D03*
X020756Y016192D03*
X020756Y015877D03*
D18*
X020932Y028441D02*
X020932Y028981D01*
X019932Y028981D02*
X019932Y028441D01*
D19*
X011180Y018318D03*
X009920Y017727D03*
X007518Y016979D03*
X007518Y016546D03*
X007518Y016113D03*
X007518Y015640D03*
X007518Y014932D03*
X007518Y014459D03*
X005707Y014066D03*
X005314Y014144D03*
X005314Y015719D03*
X003896Y014932D03*
X003896Y016585D03*
X005786Y011231D03*
X005786Y010443D03*
X007518Y010443D03*
X007518Y009971D03*
X007518Y008475D03*
X007203Y008081D03*
X010983Y012255D03*
X010983Y014223D03*
X013069Y011428D03*
X018266Y016625D03*
X022400Y014656D03*
M02*
