G75*
%MOIN*%
%OFA0B0*%
%FSLAX24Y24*%
%IPPOS*%
%LPD*%
%AMOC8*
5,1,8,0,0,1.08239X$1,22.5*
%
%ADD10R,0.0810X0.0240*%
%ADD11R,0.0240X0.0810*%
D10*
X004605Y008711D03*
X004605Y009211D03*
X004605Y009711D03*
X004605Y010211D03*
X004605Y010711D03*
X004605Y011211D03*
X004605Y011711D03*
X004605Y012211D03*
X004605Y013751D03*
X004605Y014251D03*
X004605Y014751D03*
X004605Y015251D03*
X004605Y015751D03*
X004605Y016251D03*
X004605Y016751D03*
X004605Y017251D03*
X006495Y017251D03*
X006495Y016751D03*
X006495Y016251D03*
X006495Y015751D03*
X006495Y015251D03*
X006495Y014751D03*
X006495Y014251D03*
X006495Y013751D03*
X006495Y012211D03*
X006495Y011711D03*
X006495Y011211D03*
X006495Y010711D03*
X006495Y010211D03*
X006495Y009711D03*
X006495Y009211D03*
X006495Y008711D03*
D11*
X021262Y009577D03*
X021762Y009577D03*
X022262Y009577D03*
X022762Y009577D03*
X023262Y009577D03*
X023762Y009577D03*
X024262Y009577D03*
X024762Y009577D03*
X024762Y011467D03*
X024262Y011467D03*
X023762Y011467D03*
X023262Y011467D03*
X022762Y011467D03*
X022262Y011467D03*
X021762Y011467D03*
X021262Y011467D03*
X021262Y015601D03*
X021762Y015601D03*
X022262Y015601D03*
X022762Y015601D03*
X023262Y015601D03*
X023762Y015601D03*
X024262Y015601D03*
X024762Y015601D03*
X024762Y017491D03*
X024262Y017491D03*
X023762Y017491D03*
X023262Y017491D03*
X022762Y017491D03*
X022262Y017491D03*
X021762Y017491D03*
X021262Y017491D03*
M02*
