%
M48
M72
T01C0.0130
T02C0.0360
T03C0.0400
T04C0.0520
T05C0.1299
T06C0.1732
%
T01
X7203Y8081
X7518Y8475
X7518Y9971
X7518Y10443
X5786Y10443
X5786Y11231
X5707Y14066
X5314Y14144
X5314Y15719
X3896Y14932
X3896Y16585
X7518Y16546
X7518Y16979
X7518Y16113
X7518Y15640
X7518Y14932
X7518Y14459
X9920Y17727
X11180Y18318
X10983Y14223
X10983Y12255
X13069Y11428
X18266Y16625
X22400Y14656
T02
X20932Y28711
X19932Y28711
T03
X26202Y28236
X26202Y27236
X26202Y26236
X26202Y25236
X26202Y24236
X26202Y23236
X26202Y22236
X26202Y21236
X26202Y20236
X26202Y19236
X26202Y18236
X26202Y17236
X26202Y16236
X26202Y15236
X26202Y14236
X26202Y13236
X26202Y12236
X26202Y11236
X26202Y10236
X26202Y9236
X27202Y9236
X27202Y10236
X27202Y11236
X27202Y12236
X27202Y13236
X27202Y14236
X27202Y15236
X27202Y16236
X27202Y17236
X27202Y18236
X27202Y19236
X27202Y20236
X27202Y21236
X27202Y22236
X27202Y23236
X27202Y24236
X27202Y25236
X27202Y26236
X27202Y27236
X27202Y28236
X2413Y28246
X1413Y28246
X1413Y27246
X2413Y27246
X2413Y26246
X1413Y26246
X1413Y25246
X2413Y25246
X2413Y24246
X1413Y24246
X1413Y23246
X2413Y23246
X2413Y22246
X1413Y22246
X1413Y21246
X1413Y20246
X2413Y20246
X2413Y21246
X2413Y19246
X1413Y19246
X1413Y18246
X2413Y18246
X2413Y17246
X1413Y17246
X1413Y16246
X2413Y16246
X2413Y15246
X1413Y15246
X1413Y14246
X1413Y13246
X2413Y13246
X2413Y14246
X2413Y12246
X1413Y12246
X1413Y11246
X2413Y11246
X2413Y10246
X1413Y10246
X1413Y9246
X2413Y9246
T04
X18543Y25349
X21948Y25343
T05
X2032Y1388
X26534Y1388
T06
X15510Y20562
X15510Y33160
X2912Y33160
M30
