G75*
%MOIN*%
%OFA0B0*%
%FSLAX24Y24*%
%IPPOS*%
%LPD*%
%AMOC8*
5,1,8,0,0,1.08239X$1,22.5*
%
%ADD10C,0.0040*%
%ADD11C,0.0060*%
%ADD12C,0.0050*%
%ADD13C,0.0030*%
%ADD14C,0.0020*%
D10*
X007932Y009203D02*
X008522Y009203D01*
X008522Y010424D02*
X007932Y010424D01*
X007932Y011251D02*
X008522Y011251D01*
X008522Y012471D02*
X007932Y012471D01*
X007932Y013692D02*
X008522Y013692D01*
X008522Y014912D02*
X007932Y014912D01*
X007932Y015739D02*
X008522Y015739D01*
X008522Y016959D02*
X007932Y016959D01*
X009349Y007038D02*
X009940Y007038D01*
X009940Y005818D02*
X009349Y005818D01*
X009349Y005463D02*
X009940Y005463D01*
X009940Y004243D02*
X009349Y004243D01*
X011589Y001761D02*
X011589Y001300D01*
X011896Y001300D01*
X012049Y001300D02*
X012203Y001300D01*
X012126Y001300D02*
X012126Y001761D01*
X012049Y001761D01*
X011896Y001761D02*
X011589Y001761D01*
X011589Y001530D02*
X011742Y001530D01*
X012356Y001530D02*
X012356Y001377D01*
X012433Y001300D01*
X012586Y001300D01*
X012663Y001454D02*
X012356Y001454D01*
X012356Y001530D02*
X012433Y001607D01*
X012586Y001607D01*
X012663Y001530D01*
X012663Y001454D01*
X012817Y001530D02*
X012817Y001377D01*
X012893Y001300D01*
X013124Y001300D01*
X013354Y001377D02*
X013354Y001684D01*
X013277Y001607D02*
X013431Y001607D01*
X013584Y001607D02*
X013584Y001300D01*
X013431Y001300D02*
X013354Y001377D01*
X013584Y001454D02*
X013737Y001607D01*
X013814Y001607D01*
X013968Y001530D02*
X013968Y001377D01*
X014044Y001300D01*
X014198Y001300D01*
X014275Y001377D01*
X014275Y001530D01*
X014198Y001607D01*
X014044Y001607D01*
X013968Y001530D01*
X014428Y001607D02*
X014428Y001300D01*
X014735Y001300D02*
X014735Y001530D01*
X014658Y001607D01*
X014428Y001607D01*
X014888Y001607D02*
X014888Y001300D01*
X014888Y001530D02*
X015195Y001530D01*
X015195Y001607D02*
X015195Y001300D01*
X015349Y001300D02*
X015579Y001300D01*
X015656Y001377D01*
X015579Y001454D01*
X015426Y001454D01*
X015349Y001530D01*
X015426Y001607D01*
X015656Y001607D01*
X015809Y001530D02*
X015886Y001607D01*
X016039Y001607D01*
X016116Y001530D01*
X016116Y001300D01*
X015809Y001300D02*
X015809Y001761D01*
X015195Y001607D02*
X015042Y001761D01*
X014888Y001607D01*
X013124Y001607D02*
X012893Y001607D01*
X012817Y001530D01*
X016730Y001454D02*
X016730Y001607D01*
X016883Y001761D01*
X017037Y001684D02*
X017114Y001761D01*
X017267Y001761D01*
X017344Y001684D01*
X017344Y001607D01*
X017037Y001300D01*
X017344Y001300D01*
X017497Y001377D02*
X017497Y001684D01*
X017574Y001761D01*
X017728Y001761D01*
X017804Y001684D01*
X017497Y001377D01*
X017574Y001300D01*
X017728Y001300D01*
X017804Y001377D01*
X017804Y001684D01*
X017958Y001684D02*
X018034Y001761D01*
X018188Y001761D01*
X018265Y001684D01*
X018265Y001607D01*
X017958Y001300D01*
X018265Y001300D01*
X018418Y001377D02*
X018418Y001684D01*
X018495Y001761D01*
X018648Y001761D01*
X018725Y001684D01*
X018418Y001377D01*
X018495Y001300D01*
X018648Y001300D01*
X018725Y001377D01*
X018725Y001684D01*
X018879Y001761D02*
X019032Y001607D01*
X019032Y001454D01*
X018879Y001300D01*
X016883Y001300D02*
X016730Y001454D01*
X019349Y004243D02*
X019940Y004243D01*
X019940Y005463D02*
X019349Y005463D01*
X019349Y005739D02*
X019940Y005739D01*
X019940Y006959D02*
X019349Y006959D01*
X020766Y009203D02*
X021357Y009203D01*
X021357Y010424D02*
X020766Y010424D01*
X020766Y011251D02*
X021357Y011251D01*
X021357Y012471D02*
X020766Y012471D01*
X020766Y013770D02*
X021357Y013770D01*
X021357Y014991D02*
X020766Y014991D01*
X020766Y015739D02*
X021357Y015739D01*
X021357Y016959D02*
X020766Y016959D01*
D11*
X019487Y016888D02*
X019487Y016775D01*
X019487Y016388D02*
X019487Y016275D01*
X019487Y015888D02*
X019487Y015775D01*
X019487Y015388D02*
X019487Y015275D01*
X019487Y014888D02*
X019487Y014775D01*
X019487Y014388D02*
X019487Y014275D01*
X019487Y013888D02*
X019487Y013775D01*
X019487Y013388D02*
X019487Y013275D01*
X019487Y012888D02*
X019487Y012775D01*
X019487Y012388D02*
X019487Y012275D01*
X019487Y011888D02*
X019487Y011775D01*
X019487Y011388D02*
X019487Y011275D01*
X019487Y010888D02*
X019487Y010775D01*
X019487Y010388D02*
X019487Y010275D01*
X019487Y009888D02*
X019487Y009775D01*
X019487Y009388D02*
X019487Y009275D01*
X019487Y008888D02*
X019487Y008514D01*
X019290Y008613D01*
X019487Y008514D02*
X019290Y008318D01*
X018916Y008318D01*
X018530Y008318D02*
X018416Y008318D01*
X018030Y008318D02*
X017916Y008318D01*
X017530Y008318D02*
X017416Y008318D01*
X017030Y008318D02*
X016916Y008318D01*
X016530Y008318D02*
X016416Y008318D01*
X016030Y008318D02*
X015916Y008318D01*
X015530Y008318D02*
X015416Y008318D01*
X015030Y008318D02*
X014916Y008318D01*
X014530Y008318D02*
X014416Y008318D01*
X014030Y008318D02*
X013916Y008318D01*
X013530Y008318D02*
X013416Y008318D01*
X013030Y008318D02*
X012916Y008318D01*
X012530Y008318D02*
X012416Y008318D01*
X012030Y008318D02*
X011916Y008318D01*
X011530Y008318D02*
X011416Y008318D01*
X011030Y008318D02*
X010916Y008318D01*
X010530Y008318D02*
X010156Y008318D01*
X009959Y008514D01*
X010156Y008613D01*
X009959Y008514D02*
X009959Y008888D01*
X009959Y009275D02*
X009959Y009388D01*
X009959Y009775D02*
X009959Y009888D01*
X009959Y010275D02*
X009959Y010388D01*
X009959Y010775D02*
X009959Y010888D01*
X009959Y011275D02*
X009959Y011388D01*
X009959Y011775D02*
X009959Y011888D01*
X009959Y012275D02*
X009959Y012388D01*
X009959Y012775D02*
X009959Y012888D01*
X009959Y013275D02*
X009959Y013388D01*
X009959Y013775D02*
X009959Y013888D01*
X009959Y014275D02*
X009959Y014388D01*
X009959Y014775D02*
X009959Y014888D01*
X009959Y015275D02*
X009959Y015388D01*
X009959Y015775D02*
X009959Y015888D01*
X009959Y016275D02*
X009959Y016388D01*
X009959Y016775D02*
X009959Y016888D01*
X009959Y017275D02*
X009959Y017353D01*
X010530Y017805D01*
X010916Y017845D02*
X011030Y017845D01*
X011416Y017845D02*
X011530Y017845D01*
X011916Y017845D02*
X012030Y017845D01*
X012416Y017845D02*
X012530Y017845D01*
X012916Y017845D02*
X013030Y017845D01*
X013416Y017845D02*
X013530Y017845D01*
X013916Y017845D02*
X014030Y017845D01*
X014416Y017845D02*
X014530Y017845D01*
X014916Y017845D02*
X015030Y017845D01*
X015416Y017845D02*
X015530Y017845D01*
X015896Y017845D02*
X016050Y017845D01*
X016416Y017845D02*
X016530Y017845D01*
X016916Y017845D02*
X017030Y017845D01*
X017416Y017845D02*
X017530Y017845D01*
X017916Y017845D02*
X018030Y017845D01*
X018416Y017845D02*
X018530Y017845D01*
X018916Y017845D02*
X019290Y017845D01*
X019487Y017648D01*
X019290Y017353D01*
X019487Y017275D02*
X019487Y017648D01*
X015307Y014353D02*
X014880Y014353D01*
X015094Y014353D02*
X015094Y014994D01*
X014880Y014780D01*
X014663Y014994D02*
X014663Y014460D01*
X014556Y014353D01*
X014342Y014353D01*
X014236Y014460D01*
X014236Y014994D01*
X017943Y025249D02*
X018093Y025249D01*
X017943Y025249D02*
X017943Y025449D01*
X018093Y025449D01*
X018993Y025449D02*
X019143Y025449D01*
X019143Y025249D01*
X018993Y025249D01*
X021348Y025243D02*
X021498Y025243D01*
X021348Y025243D02*
X021348Y025443D01*
X021498Y025443D01*
X022398Y025443D02*
X022548Y025443D01*
X022548Y025243D01*
X022398Y025243D01*
X021332Y028211D02*
X020532Y028211D01*
X020432Y028311D01*
X020332Y028211D01*
X019532Y028211D01*
X019432Y028311D01*
X019432Y029111D01*
X019532Y029211D01*
X020332Y029211D01*
X020432Y029111D01*
X020532Y029211D01*
X021332Y029211D01*
X021432Y029111D01*
X021432Y028311D01*
X021332Y028211D01*
X025029Y028302D02*
X025242Y028516D01*
X025242Y027875D01*
X025029Y027875D02*
X025456Y027875D01*
X025702Y027986D02*
X025952Y027736D01*
X027452Y027736D01*
X027702Y027486D01*
X027702Y026986D01*
X027452Y026736D01*
X025952Y026736D01*
X025702Y026486D01*
X025702Y025986D01*
X025952Y025736D01*
X027452Y025736D01*
X027702Y025486D01*
X027702Y024986D01*
X027452Y024736D01*
X025952Y024736D01*
X025702Y024486D01*
X025702Y023986D01*
X025952Y023736D01*
X027452Y023736D01*
X027702Y023486D01*
X027702Y022986D01*
X027452Y022736D01*
X025952Y022736D01*
X025702Y022486D01*
X025702Y021986D01*
X025952Y021736D01*
X027452Y021736D01*
X027702Y021486D01*
X027702Y020986D01*
X027452Y020736D01*
X025952Y020736D01*
X025702Y020986D01*
X025702Y021486D01*
X025952Y021736D01*
X025952Y022736D02*
X025702Y022986D01*
X025702Y023486D01*
X025952Y023736D01*
X025952Y024736D02*
X025702Y024986D01*
X025702Y025486D01*
X025952Y025736D01*
X025952Y026736D02*
X025702Y026986D01*
X025702Y027486D01*
X025952Y027736D01*
X025702Y027986D02*
X025702Y028486D01*
X025952Y028736D01*
X027452Y028736D01*
X027702Y028486D01*
X027702Y027986D01*
X027452Y027736D01*
X027452Y026736D02*
X027702Y026486D01*
X027702Y025986D01*
X027452Y025736D01*
X027452Y024736D02*
X027702Y024486D01*
X027702Y023986D01*
X027452Y023736D01*
X027452Y022736D02*
X027702Y022486D01*
X027702Y021986D01*
X027452Y021736D01*
X027452Y020736D02*
X027702Y020486D01*
X027702Y019986D01*
X027452Y019736D01*
X025952Y019736D01*
X025702Y019986D01*
X025702Y020486D01*
X025952Y020736D01*
X025952Y019736D02*
X025702Y019486D01*
X025702Y018986D01*
X025952Y018736D01*
X027452Y018736D01*
X027702Y018486D01*
X027702Y017986D01*
X027452Y017736D01*
X025952Y017736D01*
X025702Y017986D01*
X025702Y018486D01*
X025952Y018736D01*
X025952Y017736D02*
X025702Y017486D01*
X025702Y016986D01*
X025952Y016736D01*
X027452Y016736D01*
X027702Y016486D01*
X027702Y015986D01*
X027452Y015736D01*
X025952Y015736D01*
X025702Y015986D01*
X025702Y016486D01*
X025952Y016736D01*
X025952Y015736D02*
X025702Y015486D01*
X025702Y014986D01*
X025952Y014736D01*
X027452Y014736D01*
X027702Y014486D01*
X027702Y013986D01*
X027452Y013736D01*
X025952Y013736D01*
X025702Y013986D01*
X025702Y014486D01*
X025952Y014736D01*
X025952Y013736D02*
X025702Y013486D01*
X025702Y012986D01*
X025952Y012736D01*
X027452Y012736D01*
X027702Y012486D01*
X027702Y011986D01*
X027452Y011736D01*
X025952Y011736D01*
X025702Y011986D01*
X025702Y012486D01*
X025952Y012736D01*
X025952Y011736D02*
X025702Y011486D01*
X025702Y010986D01*
X025952Y010736D01*
X027452Y010736D01*
X027702Y010486D01*
X027702Y009986D01*
X027452Y009736D01*
X027702Y009486D01*
X027702Y008986D01*
X027452Y008736D01*
X025952Y008736D01*
X025702Y008986D01*
X025702Y009486D01*
X025952Y009736D01*
X027452Y009736D01*
X027452Y010736D02*
X027702Y010986D01*
X027702Y011486D01*
X027452Y011736D01*
X027452Y012736D02*
X027702Y012986D01*
X027702Y013486D01*
X027452Y013736D01*
X027452Y014736D02*
X027702Y014986D01*
X027702Y015486D01*
X027452Y015736D01*
X027452Y016736D02*
X027702Y016986D01*
X027702Y017486D01*
X027452Y017736D01*
X027452Y018736D02*
X027702Y018986D01*
X027702Y019486D01*
X027452Y019736D01*
X025952Y010736D02*
X025702Y010486D01*
X025702Y009986D01*
X025952Y009736D01*
X026985Y008327D02*
X027412Y007900D01*
X027519Y008007D01*
X027519Y008220D01*
X027412Y008327D01*
X026985Y008327D01*
X026878Y008220D01*
X026878Y008007D01*
X026985Y007900D01*
X027412Y007900D01*
X027199Y007682D02*
X027199Y007255D01*
X026878Y007576D01*
X027519Y007576D01*
X003566Y008977D02*
X003139Y008977D01*
X003352Y008977D02*
X003352Y009618D01*
X003139Y009404D01*
X002913Y009496D02*
X002913Y008996D01*
X002663Y008746D01*
X001163Y008746D01*
X000913Y008996D01*
X000913Y009496D01*
X001163Y009746D01*
X002663Y009746D01*
X002913Y009996D01*
X002913Y010496D01*
X002663Y010746D01*
X001163Y010746D01*
X000913Y010996D01*
X000913Y011496D01*
X001163Y011746D01*
X002663Y011746D01*
X002913Y011996D01*
X002913Y012496D01*
X002663Y012746D01*
X001163Y012746D01*
X000913Y012996D01*
X000913Y013496D01*
X001163Y013746D01*
X002663Y013746D01*
X002913Y013996D01*
X002913Y014496D01*
X002663Y014746D01*
X001163Y014746D01*
X000913Y014996D01*
X000913Y015496D01*
X001163Y015746D01*
X002663Y015746D01*
X002913Y015496D01*
X002913Y014996D01*
X002663Y014746D01*
X002663Y015746D02*
X002913Y015996D01*
X002913Y016496D01*
X002663Y016746D01*
X001163Y016746D01*
X000913Y016996D01*
X000913Y017496D01*
X001163Y017746D01*
X002663Y017746D01*
X002913Y017496D01*
X002913Y016996D01*
X002663Y016746D01*
X002663Y017746D02*
X002913Y017996D01*
X002913Y018496D01*
X002663Y018746D01*
X001163Y018746D01*
X000913Y018996D01*
X000913Y019496D01*
X001163Y019746D01*
X002663Y019746D01*
X002913Y019496D01*
X002913Y018996D01*
X002663Y018746D01*
X002663Y019746D02*
X002913Y019996D01*
X002913Y020496D01*
X002663Y020746D01*
X001163Y020746D01*
X000913Y020996D01*
X000913Y021496D01*
X001163Y021746D01*
X002663Y021746D01*
X002913Y021496D01*
X002913Y020996D01*
X002663Y020746D01*
X002663Y021746D02*
X002913Y021996D01*
X002913Y022496D01*
X002663Y022746D01*
X001163Y022746D01*
X000913Y022996D01*
X000913Y023496D01*
X001163Y023746D01*
X002663Y023746D01*
X002913Y023496D01*
X002913Y022996D01*
X002663Y022746D01*
X002663Y023746D02*
X002913Y023996D01*
X002913Y024496D01*
X002663Y024746D01*
X001163Y024746D01*
X000913Y024996D01*
X000913Y025496D01*
X001163Y025746D01*
X002663Y025746D01*
X002913Y025496D01*
X002913Y024996D01*
X002663Y024746D01*
X002663Y025746D02*
X002913Y025996D01*
X002913Y026496D01*
X002663Y026746D01*
X001163Y026746D01*
X000913Y026996D01*
X000913Y027496D01*
X001163Y027746D01*
X000913Y027996D01*
X000913Y028496D01*
X001163Y028746D01*
X002663Y028746D01*
X002913Y028496D01*
X002913Y027996D01*
X002663Y027746D01*
X001163Y027746D01*
X001163Y026746D02*
X000913Y026496D01*
X000913Y025996D01*
X001163Y025746D01*
X001163Y024746D02*
X000913Y024496D01*
X000913Y023996D01*
X001163Y023746D01*
X001163Y022746D02*
X000913Y022496D01*
X000913Y021996D01*
X001163Y021746D01*
X001163Y020746D02*
X000913Y020496D01*
X000913Y019996D01*
X001163Y019746D01*
X001163Y018746D02*
X000913Y018496D01*
X000913Y017996D01*
X001163Y017746D01*
X001163Y016746D02*
X000913Y016496D01*
X000913Y015996D01*
X001163Y015746D01*
X001163Y014746D02*
X000913Y014496D01*
X000913Y013996D01*
X001163Y013746D01*
X001163Y012746D02*
X000913Y012496D01*
X000913Y011996D01*
X001163Y011746D01*
X001163Y010746D02*
X000913Y010496D01*
X000913Y009996D01*
X001163Y009746D01*
X002663Y009746D02*
X002913Y009496D01*
X002663Y010746D02*
X002913Y010996D01*
X002913Y011496D01*
X002663Y011746D01*
X002663Y012746D02*
X002913Y012996D01*
X002913Y013496D01*
X002663Y013746D01*
X002663Y026746D02*
X002913Y026996D01*
X002913Y027496D01*
X002663Y027746D01*
X001381Y029017D02*
X001381Y029444D01*
X001594Y029661D02*
X001167Y029661D01*
X001060Y029768D01*
X001060Y029982D01*
X001167Y030088D01*
X001594Y029661D01*
X001701Y029768D01*
X001701Y029982D01*
X001594Y030088D01*
X001167Y030088D01*
X001060Y029337D02*
X001381Y029017D01*
X001701Y029337D02*
X001060Y029337D01*
D12*
X017789Y026399D02*
X017789Y026098D01*
X017864Y026023D01*
X018014Y026023D01*
X018089Y026098D01*
X018089Y026248D01*
X017939Y026248D01*
X017789Y026399D02*
X017864Y026474D01*
X018014Y026474D01*
X018089Y026399D01*
X018249Y026474D02*
X018550Y026023D01*
X018550Y026474D01*
X018710Y026474D02*
X018710Y026023D01*
X018935Y026023D01*
X019010Y026098D01*
X019010Y026399D01*
X018935Y026474D01*
X018710Y026474D01*
X018249Y026474D02*
X018249Y026023D01*
X019827Y027782D02*
X020234Y027782D01*
X020693Y027703D02*
X021100Y027703D01*
X020896Y027906D02*
X020896Y027499D01*
X021560Y026468D02*
X021560Y026243D01*
X021710Y026318D01*
X021785Y026318D01*
X021860Y026243D01*
X021860Y026093D01*
X021785Y026018D01*
X021635Y026018D01*
X021560Y026093D01*
X021560Y026468D02*
X021860Y026468D01*
X022020Y026468D02*
X022020Y026168D01*
X022171Y026018D01*
X022321Y026168D01*
X022321Y026468D01*
X020993Y029622D02*
X020993Y030073D01*
X020692Y030073D02*
X020993Y029622D01*
X020692Y029622D02*
X020692Y030073D01*
X020532Y029923D02*
X020532Y029622D01*
X020532Y029848D02*
X020232Y029848D01*
X020232Y029923D02*
X020382Y030073D01*
X020532Y029923D01*
X020232Y029923D02*
X020232Y029622D01*
X019922Y029848D02*
X019772Y029848D01*
X019772Y030073D02*
X019772Y029622D01*
X019772Y030073D02*
X020072Y030073D01*
X018702Y002929D02*
X018702Y002319D01*
X018397Y002319D01*
X018295Y002421D01*
X018295Y002624D01*
X018397Y002726D01*
X018702Y002726D01*
X019005Y002726D02*
X019208Y002726D01*
X019310Y002624D01*
X019310Y002319D01*
X019005Y002319D01*
X018903Y002421D01*
X019005Y002522D01*
X019310Y002522D01*
X019511Y002319D02*
X019816Y002319D01*
X019918Y002421D01*
X019918Y002624D01*
X019816Y002726D01*
X019511Y002726D01*
X019511Y002115D01*
X020220Y002421D02*
X020220Y002828D01*
X020119Y002726D02*
X020322Y002726D01*
X020524Y002624D02*
X020625Y002726D01*
X020829Y002726D01*
X020931Y002624D01*
X020931Y002522D01*
X020524Y002522D01*
X020524Y002421D02*
X020524Y002624D01*
X020524Y002421D02*
X020625Y002319D01*
X020829Y002319D01*
X021131Y002319D02*
X021131Y002726D01*
X021131Y002522D02*
X021335Y002726D01*
X021437Y002726D01*
X020322Y002319D02*
X020220Y002421D01*
X018095Y002319D02*
X018095Y002726D01*
X017891Y002929D01*
X017688Y002726D01*
X017688Y002319D01*
X017688Y002624D02*
X018095Y002624D01*
X016879Y002726D02*
X016676Y002319D01*
X016472Y002726D01*
X016272Y002624D02*
X016272Y002522D01*
X015865Y002522D01*
X015865Y002421D02*
X015865Y002624D01*
X015966Y002726D01*
X016170Y002726D01*
X016272Y002624D01*
X016170Y002319D02*
X015966Y002319D01*
X015865Y002421D01*
X015664Y002421D02*
X015664Y002828D01*
X015562Y002929D01*
X015257Y002929D01*
X015257Y002319D01*
X015562Y002319D01*
X015664Y002421D01*
X014448Y002421D02*
X014347Y002319D01*
X014143Y002319D01*
X014041Y002421D01*
X014448Y002828D01*
X014448Y002421D01*
X014041Y002421D02*
X014041Y002828D01*
X014143Y002929D01*
X014347Y002929D01*
X014448Y002828D01*
X013841Y002319D02*
X013434Y002319D01*
X013637Y002319D02*
X013637Y002929D01*
X013434Y002726D01*
X013233Y002828D02*
X013131Y002929D01*
X012928Y002929D01*
X012826Y002828D01*
X012826Y002421D01*
X013233Y002828D01*
X013233Y002421D01*
X013131Y002319D01*
X012928Y002319D01*
X012826Y002421D01*
X012625Y002624D02*
X012218Y002624D01*
X012523Y002929D01*
X012523Y002319D01*
X012018Y002421D02*
X011916Y002319D01*
X011712Y002319D01*
X011611Y002421D01*
X011410Y002421D02*
X011410Y002522D01*
X011308Y002624D01*
X011105Y002624D01*
X011003Y002726D01*
X011003Y002828D01*
X011105Y002929D01*
X011308Y002929D01*
X011410Y002828D01*
X011611Y002828D02*
X011712Y002929D01*
X011916Y002929D01*
X012018Y002828D01*
X012018Y002726D01*
X011916Y002624D01*
X012018Y002522D01*
X012018Y002421D01*
X011916Y002624D02*
X011814Y002624D01*
X011410Y002421D02*
X011308Y002319D01*
X011105Y002319D01*
X011003Y002421D01*
X010802Y002319D02*
X010802Y002929D01*
X010599Y002726D01*
X010395Y002929D01*
X010395Y002319D01*
X009991Y002319D02*
X009991Y002929D01*
X010194Y002929D02*
X009787Y002929D01*
D13*
X001153Y008160D02*
X001057Y008160D01*
X001008Y008208D01*
X001008Y008401D01*
X001057Y008450D01*
X001153Y008450D01*
X001202Y008401D01*
X001202Y008305D02*
X001105Y008305D01*
X001202Y008305D02*
X001202Y008208D01*
X001153Y008160D01*
X001303Y008160D02*
X001303Y008450D01*
X001448Y008450D01*
X001496Y008401D01*
X001496Y008305D01*
X001448Y008256D01*
X001303Y008256D01*
X001598Y008160D02*
X001694Y008160D01*
X001646Y008160D02*
X001646Y008450D01*
X001598Y008450D02*
X001694Y008450D01*
X001794Y008401D02*
X001794Y008208D01*
X001842Y008160D01*
X001939Y008160D01*
X001987Y008208D01*
X001987Y008401D01*
X001939Y008450D01*
X001842Y008450D01*
X001794Y008401D01*
X002089Y008111D02*
X002282Y008111D01*
X002383Y008208D02*
X002577Y008401D01*
X002577Y008208D01*
X002528Y008160D01*
X002432Y008160D01*
X002383Y008208D01*
X002383Y008401D01*
X002432Y008450D01*
X002528Y008450D01*
X002577Y008401D01*
X007774Y010565D02*
X007774Y010855D01*
X007920Y010855D01*
X007968Y010807D01*
X007968Y010710D01*
X007920Y010662D01*
X007774Y010662D01*
X007871Y010662D02*
X007968Y010565D01*
X008069Y010565D02*
X008069Y010855D01*
X008263Y010565D01*
X008263Y010855D01*
X008364Y010710D02*
X008557Y010710D01*
X008509Y010565D02*
X008509Y010855D01*
X008364Y010710D01*
X008412Y012612D02*
X008364Y012660D01*
X008412Y012612D02*
X008509Y012612D01*
X008557Y012660D01*
X008557Y012709D01*
X008509Y012757D01*
X008460Y012757D01*
X008509Y012757D02*
X008557Y012806D01*
X008557Y012854D01*
X008509Y012902D01*
X008412Y012902D01*
X008364Y012854D01*
X008263Y012902D02*
X008263Y012612D01*
X008069Y012902D01*
X008069Y012612D01*
X007968Y012612D02*
X007871Y012709D01*
X007920Y012709D02*
X007774Y012709D01*
X007774Y012612D02*
X007774Y012902D01*
X007920Y012902D01*
X007968Y012854D01*
X007968Y012757D01*
X007920Y012709D01*
X007853Y015053D02*
X007853Y015343D01*
X007998Y015343D01*
X008047Y015295D01*
X008047Y015198D01*
X007998Y015150D01*
X007853Y015150D01*
X007950Y015150D02*
X008047Y015053D01*
X008148Y015053D02*
X008148Y015343D01*
X008341Y015053D01*
X008341Y015343D01*
X008442Y015295D02*
X008491Y015343D01*
X008588Y015343D01*
X008636Y015295D01*
X008636Y015246D01*
X008442Y015053D01*
X008636Y015053D01*
X008636Y017100D02*
X008442Y017100D01*
X008539Y017100D02*
X008539Y017390D01*
X008442Y017294D01*
X008341Y017390D02*
X008341Y017100D01*
X008148Y017390D01*
X008148Y017100D01*
X008047Y017100D02*
X007950Y017197D01*
X007998Y017197D02*
X007853Y017197D01*
X007853Y017100D02*
X007853Y017390D01*
X007998Y017390D01*
X008047Y017342D01*
X008047Y017245D01*
X007998Y017197D01*
X009179Y008332D02*
X009131Y008284D01*
X009131Y008090D01*
X009179Y008042D01*
X009276Y008042D01*
X009324Y008090D01*
X009425Y008042D02*
X009619Y008042D01*
X009522Y008042D02*
X009522Y008332D01*
X009425Y008235D01*
X009324Y008284D02*
X009276Y008332D01*
X009179Y008332D01*
X008923Y006758D02*
X008972Y006710D01*
X008972Y006613D01*
X008923Y006565D01*
X008827Y006565D02*
X008778Y006661D01*
X008778Y006710D01*
X008827Y006758D01*
X008923Y006758D01*
X008827Y006565D02*
X008682Y006565D01*
X008682Y006758D01*
X008682Y006463D02*
X008972Y006463D01*
X008682Y006270D01*
X008972Y006270D01*
X008972Y006169D02*
X008875Y006072D01*
X008875Y006120D02*
X008875Y005975D01*
X008972Y005975D02*
X008682Y005975D01*
X008682Y006120D01*
X008730Y006169D01*
X008827Y006169D01*
X008875Y006120D01*
X009270Y004083D02*
X009416Y004083D01*
X009464Y004035D01*
X009464Y003938D01*
X009416Y003890D01*
X009270Y003890D01*
X009270Y003793D02*
X009270Y004083D01*
X009367Y003890D02*
X009464Y003793D01*
X009565Y003793D02*
X009565Y004083D01*
X009759Y003793D01*
X009759Y004083D01*
X009860Y003938D02*
X010005Y003938D01*
X010053Y003890D01*
X010053Y003842D01*
X010005Y003793D01*
X009908Y003793D01*
X009860Y003842D01*
X009860Y003938D01*
X009957Y004035D01*
X010053Y004083D01*
X019349Y004005D02*
X019349Y003714D01*
X019349Y003811D02*
X019494Y003811D01*
X019543Y003860D01*
X019543Y003956D01*
X019494Y004005D01*
X019349Y004005D01*
X019446Y003811D02*
X019543Y003714D01*
X019644Y003714D02*
X019644Y004005D01*
X019837Y003714D01*
X019837Y004005D01*
X019939Y004005D02*
X020132Y004005D01*
X020132Y003956D01*
X019939Y003763D01*
X019939Y003714D01*
X019926Y007100D02*
X019829Y007100D01*
X019781Y007149D01*
X019781Y007197D01*
X019829Y007245D01*
X019926Y007245D01*
X019975Y007197D01*
X019975Y007149D01*
X019926Y007100D01*
X019926Y007245D02*
X019975Y007294D01*
X019975Y007342D01*
X019926Y007390D01*
X019829Y007390D01*
X019781Y007342D01*
X019781Y007294D01*
X019829Y007245D01*
X019680Y007100D02*
X019680Y007390D01*
X019486Y007390D02*
X019680Y007100D01*
X019486Y007100D02*
X019486Y007390D01*
X019385Y007342D02*
X019385Y007245D01*
X019337Y007197D01*
X019192Y007197D01*
X019288Y007197D02*
X019385Y007100D01*
X019192Y007100D02*
X019192Y007390D01*
X019337Y007390D01*
X019385Y007342D01*
X020530Y010565D02*
X020530Y010855D01*
X020675Y010855D01*
X020724Y010807D01*
X020724Y010710D01*
X020675Y010662D01*
X020530Y010662D01*
X020627Y010662D02*
X020724Y010565D01*
X020825Y010565D02*
X020825Y010855D01*
X021018Y010565D01*
X021018Y010855D01*
X021120Y010758D02*
X021216Y010855D01*
X021216Y010565D01*
X021120Y010565D02*
X021313Y010565D01*
X021414Y010565D02*
X021608Y010758D01*
X021608Y010807D01*
X021559Y010855D01*
X021463Y010855D01*
X021414Y010807D01*
X021414Y010565D02*
X021608Y010565D01*
X021590Y012612D02*
X021590Y012902D01*
X021493Y012806D01*
X021493Y012612D02*
X021687Y012612D01*
X021392Y012612D02*
X021198Y012612D01*
X021295Y012612D02*
X021295Y012902D01*
X021198Y012806D01*
X021097Y012902D02*
X021097Y012612D01*
X020904Y012902D01*
X020904Y012612D01*
X020803Y012612D02*
X020706Y012709D01*
X020754Y012709D02*
X020609Y012709D01*
X020609Y012612D02*
X020609Y012902D01*
X020754Y012902D01*
X020803Y012854D01*
X020803Y012757D01*
X020754Y012709D01*
X020724Y015132D02*
X020627Y015228D01*
X020675Y015228D02*
X020530Y015228D01*
X020530Y015132D02*
X020530Y015422D01*
X020675Y015422D01*
X020724Y015374D01*
X020724Y015277D01*
X020675Y015228D01*
X020825Y015132D02*
X020825Y015422D01*
X021018Y015132D01*
X021018Y015422D01*
X021120Y015325D02*
X021216Y015422D01*
X021216Y015132D01*
X021120Y015132D02*
X021313Y015132D01*
X021414Y015180D02*
X021608Y015374D01*
X021608Y015180D01*
X021559Y015132D01*
X021463Y015132D01*
X021414Y015180D01*
X021414Y015374D01*
X021463Y015422D01*
X021559Y015422D01*
X021608Y015374D01*
X021343Y017100D02*
X021392Y017149D01*
X021392Y017342D01*
X021343Y017390D01*
X021247Y017390D01*
X021198Y017342D01*
X021198Y017294D01*
X021247Y017245D01*
X021392Y017245D01*
X021343Y017100D02*
X021247Y017100D01*
X021198Y017149D01*
X021097Y017100D02*
X021097Y017390D01*
X020904Y017390D02*
X021097Y017100D01*
X020904Y017100D02*
X020904Y017390D01*
X020803Y017342D02*
X020803Y017245D01*
X020754Y017197D01*
X020609Y017197D01*
X020609Y017100D02*
X020609Y017390D01*
X020754Y017390D01*
X020803Y017342D01*
X020706Y017197D02*
X020803Y017100D01*
X020614Y019058D02*
X020420Y019058D01*
X020614Y019251D01*
X020614Y019300D01*
X020566Y019348D01*
X020469Y019348D01*
X020420Y019300D01*
X020319Y019300D02*
X020271Y019348D01*
X020174Y019348D01*
X020126Y019300D01*
X020126Y019106D01*
X020174Y019058D01*
X020271Y019058D01*
X020319Y019106D01*
X025984Y029032D02*
X026081Y029032D01*
X026130Y029080D01*
X026130Y029177D01*
X026033Y029177D01*
X026130Y029274D02*
X026081Y029322D01*
X025984Y029322D01*
X025936Y029274D01*
X025936Y029080D01*
X025984Y029032D01*
X026231Y029032D02*
X026231Y029322D01*
X026376Y029322D01*
X026424Y029274D01*
X026424Y029177D01*
X026376Y029129D01*
X026231Y029129D01*
X026525Y029032D02*
X026622Y029032D01*
X026574Y029032D02*
X026574Y029322D01*
X026622Y029322D02*
X026525Y029322D01*
X026722Y029274D02*
X026722Y029080D01*
X026770Y029032D01*
X026867Y029032D01*
X026915Y029080D01*
X026915Y029274D01*
X026867Y029322D01*
X026770Y029322D01*
X026722Y029274D01*
X027016Y028984D02*
X027210Y028984D01*
X027311Y029032D02*
X027505Y029032D01*
X027408Y029032D02*
X027408Y029322D01*
X027311Y029226D01*
D14*
X019290Y017353D02*
X018901Y017353D01*
X019290Y017353D02*
X019290Y017259D01*
X019290Y016904D02*
X019290Y016759D01*
X019290Y016404D02*
X019290Y016259D01*
X019290Y015904D02*
X019290Y015759D01*
X019290Y015404D02*
X019290Y015259D01*
X019290Y014904D02*
X019290Y014759D01*
X019290Y014404D02*
X019290Y014259D01*
X019290Y013904D02*
X019290Y013759D01*
X019290Y013404D02*
X019290Y013259D01*
X019290Y012904D02*
X019290Y012759D01*
X019290Y012404D02*
X019290Y012259D01*
X019290Y011904D02*
X019290Y011759D01*
X019290Y011404D02*
X019290Y011259D01*
X019290Y010904D02*
X019290Y010759D01*
X019290Y010404D02*
X019290Y010259D01*
X019290Y009904D02*
X019290Y009759D01*
X019290Y009404D02*
X019290Y009259D01*
X019290Y008904D02*
X019290Y008613D01*
X019191Y008514D01*
X019290Y008318D01*
X019191Y008514D02*
X018901Y008514D01*
X018545Y008514D02*
X018401Y008514D01*
X018045Y008514D02*
X017901Y008514D01*
X017545Y008514D02*
X017401Y008514D01*
X017045Y008514D02*
X016901Y008514D01*
X016545Y008514D02*
X016401Y008514D01*
X016045Y008514D02*
X015901Y008514D01*
X015545Y008514D02*
X015401Y008514D01*
X015045Y008514D02*
X014901Y008514D01*
X014545Y008514D02*
X014401Y008514D01*
X014045Y008514D02*
X013901Y008514D01*
X013545Y008514D02*
X013401Y008514D01*
X013045Y008514D02*
X012901Y008514D01*
X012545Y008514D02*
X012401Y008514D01*
X012045Y008514D02*
X011901Y008514D01*
X011545Y008514D02*
X011401Y008514D01*
X011045Y008514D02*
X010901Y008514D01*
X010545Y008514D02*
X010254Y008514D01*
X010156Y008318D01*
X010254Y008514D02*
X010156Y008613D01*
X010156Y008904D01*
X010156Y009259D02*
X010156Y009404D01*
X010156Y009759D02*
X010156Y009904D01*
X010156Y010259D02*
X010156Y010404D01*
X010156Y010759D02*
X010156Y010904D01*
X010156Y011259D02*
X010156Y011404D01*
X010156Y011759D02*
X010156Y011904D01*
X010156Y012259D02*
X010156Y012404D01*
X010156Y012759D02*
X010156Y012904D01*
X010156Y013259D02*
X010156Y013404D01*
X010156Y013759D02*
X010156Y013904D01*
X010156Y014259D02*
X010156Y014404D01*
X010156Y014759D02*
X010156Y014904D01*
X010156Y015259D02*
X010156Y015404D01*
X010156Y015759D02*
X010156Y015904D01*
X010156Y016259D02*
X010156Y016404D01*
X010156Y016759D02*
X010156Y016904D01*
X010156Y017259D02*
X010156Y017353D01*
X009959Y017353D01*
X010156Y017353D02*
X010545Y017353D01*
X010901Y017353D02*
X011045Y017353D01*
X011401Y017353D02*
X011545Y017353D01*
X011901Y017353D02*
X012045Y017353D01*
X012401Y017353D02*
X012545Y017353D01*
X012901Y017353D02*
X013045Y017353D01*
X013401Y017353D02*
X013545Y017353D01*
X013901Y017353D02*
X014045Y017353D01*
X014401Y017353D02*
X014545Y017353D01*
X014901Y017353D02*
X015045Y017353D01*
X015401Y017353D02*
X015545Y017353D01*
X015880Y017353D02*
X016066Y017353D01*
X016401Y017353D02*
X016545Y017353D01*
X016901Y017353D02*
X017045Y017353D01*
X017401Y017353D02*
X017545Y017353D01*
X017901Y017353D02*
X018045Y017353D01*
X018401Y017353D02*
X018545Y017353D01*
X014526Y016928D02*
X014528Y016955D01*
X014534Y016982D01*
X014543Y017008D01*
X014556Y017032D01*
X014572Y017055D01*
X014591Y017074D01*
X014613Y017091D01*
X014637Y017105D01*
X014662Y017115D01*
X014689Y017122D01*
X014716Y017125D01*
X014744Y017124D01*
X014771Y017119D01*
X014797Y017111D01*
X014821Y017099D01*
X014844Y017083D01*
X014865Y017065D01*
X014882Y017044D01*
X014897Y017020D01*
X014908Y016995D01*
X014916Y016969D01*
X014920Y016942D01*
X014920Y016914D01*
X014916Y016887D01*
X014908Y016861D01*
X014897Y016836D01*
X014882Y016812D01*
X014865Y016791D01*
X014844Y016773D01*
X014822Y016757D01*
X014797Y016745D01*
X014771Y016737D01*
X014744Y016732D01*
X014716Y016731D01*
X014689Y016734D01*
X014662Y016741D01*
X014637Y016751D01*
X014613Y016765D01*
X014591Y016782D01*
X014572Y016801D01*
X014556Y016824D01*
X014543Y016848D01*
X014534Y016874D01*
X014528Y016901D01*
X014526Y016928D01*
X010545Y017817D02*
X010156Y017353D01*
M02*
