G75*
%MOIN*%
%OFA0B0*%
%FSLAX24Y24*%
%IPPOS*%
%LPD*%
%AMOC8*
5,1,8,0,0,1.08239X$1,22.5*
%
%ADD10C,0.0600*%
%ADD11C,0.0780*%
%ADD12C,0.0540*%
%ADD13C,0.0210*%
D10*
X001413Y009246D03*
X001413Y010246D03*
X001413Y011246D03*
X001413Y012246D03*
X001413Y013246D03*
X001413Y014246D03*
X001413Y015246D03*
X001413Y016246D03*
X001413Y017246D03*
X001413Y018246D03*
X001413Y019246D03*
X001413Y020246D03*
X001413Y021246D03*
X001413Y022246D03*
X001413Y023246D03*
X001413Y024246D03*
X001413Y025246D03*
X001413Y026246D03*
X001413Y027246D03*
X001413Y028246D03*
X002413Y028246D03*
X002413Y027246D03*
X002413Y026246D03*
X002413Y025246D03*
X002413Y024246D03*
X002413Y023246D03*
X002413Y022246D03*
X002413Y021246D03*
X002413Y020246D03*
X002413Y019246D03*
X002413Y018246D03*
X002413Y017246D03*
X002413Y016246D03*
X002413Y015246D03*
X002413Y014246D03*
X002413Y013246D03*
X002413Y012246D03*
X002413Y011246D03*
X002413Y010246D03*
X002413Y009246D03*
X026202Y009236D03*
X026202Y010236D03*
X026202Y011236D03*
X026202Y012236D03*
X026202Y013236D03*
X026202Y014236D03*
X026202Y015236D03*
X026202Y016236D03*
X026202Y017236D03*
X026202Y018236D03*
X026202Y019236D03*
X026202Y020236D03*
X026202Y021236D03*
X026202Y022236D03*
X026202Y023236D03*
X026202Y024236D03*
X026202Y025236D03*
X026202Y026236D03*
X026202Y027236D03*
X026202Y028236D03*
X027202Y028236D03*
X027202Y027236D03*
X027202Y026236D03*
X027202Y025236D03*
X027202Y024236D03*
X027202Y023236D03*
X027202Y022236D03*
X027202Y021236D03*
X027202Y020236D03*
X027202Y019236D03*
X027202Y018236D03*
X027202Y017236D03*
X027202Y016236D03*
X027202Y015236D03*
X027202Y014236D03*
X027202Y013236D03*
X027202Y012236D03*
X027202Y011236D03*
X027202Y010236D03*
X027202Y009236D03*
D11*
X021948Y025343D03*
X018543Y025349D03*
D12*
X019932Y028711D03*
X020932Y028711D03*
D13*
X007203Y008081D03*
X007518Y008475D03*
X007518Y009971D03*
X007518Y010443D03*
X005786Y010443D03*
X005786Y011231D03*
X005707Y014066D03*
X005314Y014144D03*
X005314Y015719D03*
X003896Y014932D03*
X003896Y016585D03*
X007518Y016546D03*
X007518Y016979D03*
X007518Y016113D03*
X007518Y015640D03*
X007518Y014932D03*
X007518Y014459D03*
X009920Y017727D03*
X011180Y018318D03*
X010983Y014223D03*
X010983Y012255D03*
X013069Y011428D03*
X018266Y016625D03*
X022400Y014656D03*
M02*
