G75*
%MOIN*%
%OFA0B0*%
%FSLAX24Y24*%
%IPPOS*%
%LPD*%
%AMOC8*
5,1,8,0,0,1.08239X$1,22.5*
%
%ADD10R,0.0433X0.0394*%
%ADD11R,0.0709X0.0299*%
%ADD12R,0.0299X0.0709*%
%ADD13R,0.0276X0.0177*%
D10*
X009360Y007605D03*
X010029Y007605D03*
X019780Y018562D03*
X020450Y018562D03*
D11*
X019317Y017081D03*
X019317Y016581D03*
X019317Y016081D03*
X019317Y015581D03*
X019317Y015081D03*
X019317Y014581D03*
X019317Y014081D03*
X019317Y013581D03*
X019317Y013081D03*
X019317Y012581D03*
X019317Y012081D03*
X019317Y011581D03*
X019317Y011081D03*
X019317Y010581D03*
X019317Y010081D03*
X019317Y009581D03*
X019317Y009081D03*
X010129Y009081D03*
X010129Y009581D03*
X010129Y010081D03*
X010129Y010581D03*
X010129Y011081D03*
X010129Y011581D03*
X010129Y012081D03*
X010129Y012581D03*
X010129Y013081D03*
X010129Y013581D03*
X010129Y014081D03*
X010129Y014581D03*
X010129Y015081D03*
X010129Y015581D03*
X010129Y016081D03*
X010129Y016581D03*
X010129Y017081D03*
D12*
X010723Y017676D03*
X011223Y017676D03*
X011723Y017676D03*
X012223Y017676D03*
X012723Y017676D03*
X013223Y017676D03*
X013723Y017676D03*
X014223Y017676D03*
X014723Y017676D03*
X015223Y017676D03*
X015723Y017676D03*
X016223Y017676D03*
X016723Y017676D03*
X017223Y017676D03*
X017723Y017676D03*
X018223Y017676D03*
X018723Y017676D03*
X018723Y008487D03*
X018223Y008487D03*
X017723Y008487D03*
X017223Y008487D03*
X016723Y008487D03*
X016223Y008487D03*
X015723Y008487D03*
X015223Y008487D03*
X014723Y008487D03*
X014223Y008487D03*
X013723Y008487D03*
X013223Y008487D03*
X012723Y008487D03*
X012223Y008487D03*
X011723Y008487D03*
X011223Y008487D03*
X010723Y008487D03*
D13*
X007922Y009341D03*
X007922Y009656D03*
X007922Y009971D03*
X007922Y010286D03*
X008532Y010286D03*
X008532Y009971D03*
X008532Y009656D03*
X008532Y009341D03*
X008532Y011388D03*
X008532Y011703D03*
X008532Y012018D03*
X008532Y012333D03*
X007922Y012333D03*
X007922Y012018D03*
X007922Y011703D03*
X007922Y011388D03*
X007922Y013829D03*
X007922Y014144D03*
X007922Y014459D03*
X007922Y014774D03*
X008532Y014774D03*
X008532Y014459D03*
X008532Y014144D03*
X008532Y013829D03*
X008532Y015877D03*
X008532Y016192D03*
X008532Y016506D03*
X008532Y016821D03*
X007922Y016821D03*
X007922Y016506D03*
X007922Y016192D03*
X007922Y015877D03*
X009339Y006900D03*
X009339Y006585D03*
X009339Y006270D03*
X009339Y005955D03*
X009949Y005955D03*
X009949Y006270D03*
X009949Y006585D03*
X009949Y006900D03*
X009949Y005325D03*
X009949Y005010D03*
X009949Y004695D03*
X009949Y004380D03*
X009339Y004380D03*
X009339Y004695D03*
X009339Y005010D03*
X009339Y005325D03*
X019339Y005325D03*
X019339Y005010D03*
X019339Y004695D03*
X019339Y004380D03*
X019949Y004380D03*
X019949Y004695D03*
X019949Y005010D03*
X019949Y005325D03*
X019949Y005877D03*
X019949Y006192D03*
X019949Y006506D03*
X019949Y006821D03*
X019339Y006821D03*
X019339Y006506D03*
X019339Y006192D03*
X019339Y005877D03*
X020756Y009341D03*
X020756Y009656D03*
X020756Y009971D03*
X020756Y010286D03*
X021367Y010286D03*
X021367Y009971D03*
X021367Y009656D03*
X021367Y009341D03*
X021367Y011388D03*
X021367Y011703D03*
X021367Y012018D03*
X021367Y012333D03*
X020756Y012333D03*
X020756Y012018D03*
X020756Y011703D03*
X020756Y011388D03*
X020756Y013908D03*
X020756Y014223D03*
X020756Y014538D03*
X020756Y014853D03*
X021367Y014853D03*
X021367Y014538D03*
X021367Y014223D03*
X021367Y013908D03*
X021367Y015877D03*
X021367Y016192D03*
X021367Y016506D03*
X021367Y016821D03*
X020756Y016821D03*
X020756Y016506D03*
X020756Y016192D03*
X020756Y015877D03*
M02*
